<svg xmlns="http://www.w3.org/2000/svg" viewBox="0 0 100 100" width="100" height="100" role="img" aria-label="GreenIA symbol">
  <g fill="#b9e85a">
    <path d="M50,4 C52.4,16 53,28 50,40 C47,28 47.6,16 50,4Z"></path>
    <path d="M50,4 C52.4,16 53,28 50,40 C47,28 47.6,16 50,4Z" transform="rotate(60 50 50)"></path>
    <path d="M50,4 C52.4,16 53,28 50,40 C47,28 47.6,16 50,4Z" transform="rotate(120 50 50)"></path>
    <path d="M50,4 C52.4,16 53,28 50,40 C47,28 47.6,16 50,4Z" transform="rotate(180 50 50)"></path>
    <path d="M50,4 C52.4,16 53,28 50,40 C47,28 47.6,16 50,4Z" transform="rotate(240 50 50)"></path>
    <path d="M50,4 C52.4,16 53,28 50,40 C47,28 47.6,16 50,4Z" transform="rotate(300 50 50)"></path>
    <path d="M50,20 C51.6,27 52,33 50,40 C48,33 48.4,27 50,20Z" transform="rotate(30 50 50)"></path>
    <path d="M50,20 C51.6,27 52,33 50,40 C48,33 48.4,27 50,20Z" transform="rotate(90 50 50)"></path>
    <path d="M50,20 C51.6,27 52,33 50,40 C48,33 48.4,27 50,20Z" transform="rotate(150 50 50)"></path>
    <path d="M50,20 C51.6,27 52,33 50,40 C48,33 48.4,27 50,20Z" transform="rotate(210 50 50)"></path>
    <path d="M50,20 C51.6,27 52,33 50,40 C48,33 48.4,27 50,20Z" transform="rotate(270 50 50)"></path>
    <path d="M50,20 C51.6,27 52,33 50,40 C48,33 48.4,27 50,20Z" transform="rotate(330 50 50)"></path>
  </g>
  <circle cx="50" cy="50" r="7.5" fill="#d6f0a0"></circle>
</svg>